<svg xmlns="http://www.w3.org/2000/svg" viewBox="0 0 1024 1024" fill="none" stroke="currentColor" stroke-width="80.64" stroke-linejoin="round">
  <rect x="64" y="207.36" width="896" height="609.28" rx="71.68"/>
  <g fill="currentColor" stroke="none">
    <rect x="198.4" y="314.88" width="98.56" height="80.64" rx="8.96"/>
    <rect x="377.6" y="314.88" width="98.56" height="80.64" rx="8.96"/>
    <rect x="556.8" y="314.88" width="98.56" height="80.64" rx="8.96"/>
    <rect x="736.32" y="314.88" width="98.56" height="80.64" rx="8.96"/>
    <rect x="198.4" y="458.24" width="98.56" height="80.64" rx="8.96"/>
    <rect x="377.6" y="458.24" width="98.56" height="80.64" rx="8.96"/>
    <rect x="556.8" y="458.24" width="98.56" height="80.64" rx="8.96"/>
    <rect x="736.32" y="458.24" width="98.56" height="80.64" rx="8.96"/>
    <rect x="198.4" y="601.28" width="98.56" height="80.64" rx="8.96"/>
    <rect x="341.76" y="601.28" width="340.48" height="80.64" rx="8.96"/>
    <rect x="736.32" y="601.28" width="98.56" height="80.64" rx="8.96"/>
  </g>
</svg>
