<svg xmlns="http://www.w3.org/2000/svg" viewBox="0 0 1024 1024" fill="currentColor" data-adqt-slot="primary">
  <path d="M832.32 103.2L939.84 237.6a8.96 8.96 0 0 1-6.72 14.56H865.92V771.84h67.2a8.96 8.96 0 0 1 6.72 14.56L832.32 920.8a8.96 8.96 0 0 1-13.44 0L711.36 786.4a8.96 8.96 0 0 1 6.72-14.56H785.28V252.16H718.08a8.96 8.96 0 0 1-6.72-14.56L818.88 103.2a8.96 8.96 0 0 1 13.44 0Z"/>
  <path fill-rule="evenodd" d="M99.84 135.68H556.8a35.84 35.84 0 0 1 35.84 35.84V404.48a35.84 35.84 0 0 1-35.84 35.84H99.84a35.84 35.84 0 0 1-35.84-35.84V171.52a35.84 35.84 0 0 1 35.84-35.84ZM512 180.48H144.64V359.68H512ZM99.84 619.52H556.8a35.84 35.84 0 0 1 35.84 35.84V888.32a35.84 35.84 0 0 1-35.84 35.84H99.84a35.84 35.84 0 0 1-35.84-35.84V655.36a35.84 35.84 0 0 1 35.84-35.84ZM512 664.32H144.64V843.52H512Z"/>
</svg>
